# xmcd
#
# Track frame offsets: 
#        150
#        21793
#        34734
#        56344
#        76866
#        100182
#        123169
#        136286
#        157396
#        180496
#        200754
#        213586
#        225531
#        238453
#        256871
#        278877
#        293209
#        306196
#
# Disc length: 4286 seconds
#
# Revision: 2
# Processed by: cddbd v1.5.2PL0 Copyright (c) Steve Scherf et al.
# Submitted via: ExactAudioCopy v0.99pb5
#
DISCID=0310bc12
DTITLE=Various Artist - Night Stories. Erotic Guitar
DYEAR=2003
DGENRE=Instrumental
TTITLE0=Armik - Rain Danser
TTITLE1=Armik - For Annete
TTITLE2=Blonker - Morning Breeze
TTITLE3=Armik - Zingaro
TTITLE4=Blonker - Time To Remember
TTITLE5=Armik - Golden Palms
TTITLE6=Francis Goya - Bilitis
TTITLE7=Blonker - Anak
TTITLE8=Armik - Concierto de Aranjuez
TTITLE9=Armik - Nights in Negril
TTITLE10=C. Velazquez - Besame Mucho
TTITLE11=Gipsy King - Galaxia
TTITLE12=Gipsy King - Allegria
TTITLE13=Gipsy King - Moorea
TTITLE14=Armik - Entre Dos Agu
TTITLE15=Francis Goya - Sleepy Shores
TTITLE16=Paul Mauriat - Song For Anna
TTITLE17=The Shadows "The Deerhuter" - Them From
EXTD=
EXTT0=
EXTT1=
EXTT2=
EXTT3=
EXTT4=
EXTT5=
EXTT6=
EXTT7=
EXTT8=
EXTT9=
EXTT10=
EXTT11=
EXTT12=
EXTT13=
EXTT14=
EXTT15=
EXTT16=
EXTT17=
PLAYORDER=
